PathFileType	4	(X/Y/Z)	D:/Ayumi_testdata/Ayumi_25_09_2024/motion/sumo_dl_80kg00/markers_experimental.trc	
DataRate	CameraRate	NumFrames	NumMarkers	Units	OrigDataRate	OrigDataStartFrame	OrigNumFrames	
200.00	200.00	6	52	mm	200.00	458	2164	
Frame#	Time	RSACR			LSACR			USACR			LBAR			RBAR			RHEE			RMT1			RMT5			RMT2			LHEE			LMT1			LMT5			LMT2			LMMAL			LLMAL			LTIB4			LTIB2			LTIB3			LTIB1			RMMAL			RLMAL			RTIB1			RTIB2			RTIB3			RTHI1			RTHI4			RTHI3			RTHI2			LTHI1			LTHI4			LTHI3			LTHI2			FHD			LBHD			RBHD			C7			T10			CLAV			LSHO			RSHO			LRAD			LUL			LRFIN			RRAD			RUL			RUFIN			LDUPA			LMUPA			LUUPA			RDUPA			RUUPA			RMUPA			
		X1	Y1	Z1	X2	Y2	Z2	X3	Y3	Z3	X4	Y4	Z4	X5	Y5	Z5	X6	Y6	Z6	X7	Y7	Z7	X8	Y8	Z8	X9	Y9	Z9	X10	Y10	Z10	X11	Y11	Z11	X12	Y12	Z12	X13	Y13	Z13	X14	Y14	Z14	X15	Y15	Z15	X16	Y16	Z16	X17	Y17	Z17	X18	Y18	Z18	X19	Y19	Z19	X20	Y20	Z20	X21	Y21	Z21	X22	Y22	Z22	X23	Y23	Z23	X24	Y24	Z24	X25	Y25	Z25	X26	Y26	Z26	X27	Y27	Z27	X28	Y28	Z28	X29	Y29	Z29	X30	Y30	Z30	X31	Y31	Z31	X32	Y32	Z32	X33	Y33	Z33	X34	Y34	Z34	X35	Y35	Z35	X36	Y36	Z36	X37	Y37	Z37	X38	Y38	Z38	X39	Y39	Z39	X40	Y40	Z40	X41	Y41	Z41	X42	Y42	Z42	X43	Y43	Z43	X44	Y44	Z44	X45	Y45	Z45	X46	Y46	Z46	X47	Y47	Z47	X48	Y48	Z48	X49	Y49	Z49	X50	Y50	Z50	X51	Y51	Z51	X52	Y52	Z52	

1	0.000	333.27600	965.38251	850.45282	334.66351	905.72412	852.53668	325.70392	935.29266	867.40961	208.35376	-196.87132	252.25783	179.10973	2023.84961	244.37262	294.45102	1360.70508	30.75618	123.20429	1458.79639	43.70585	187.48906	1510.42419	31.09653	150.82901	1489.11401	41.50514	333.89734	489.61197	41.29250	159.89325	403.52686	48.83349	220.45692	349.30817	32.48101	182.24240	372.23917	46.27449	273.76141	510.67679	63.58176	309.55762	439.56400	74.87653	329.85602	508.90460	204.48227	312.47620	519.71820	266.60870	352.40030	549.11945	251.96667	344.96863	560.62933	294.51483	243.50795	1350.18555	58.08183	281.04398	1412.83228	73.12493	282.28671	1322.82971	309.34207	325.56006	1304.11633	289.72058	294.12057	1343.03442	247.38635	273.02426	1124.40088	722.48322	221.03406	1189.75012	589.88007	270.58923	1183.71277	582.08539	252.98625	1167.66077	643.55804	286.57248	738.12488	715.52350	233.16158	669.06476	592.09113	282.76422	682.77386	593.62677	251.14822	692.64624	650.53400	171.55731	822.68280	1494.79773	281.36343	841.52869	1476.23767	285.30688	966.01611	1471.79932	295.83734	914.39240	1290.86853	318.68314	930.55347	906.52875	171.42435	923.15918	1232.27087	282.44739	783.91833	1285.88794	263.14322	1037.06116	1302.64929	244.86873	277.98898	1287.27014	285.75803	279.02588	1282.45862	234.63951	186.55179	1273.69299	277.48532	1547.14355	1334.58960	324.09979	1546.87048	1326.45764	272.39731	1633.94336	1347.10437	255.59886	594.39160	1286.15588	292.67447	566.37927	1267.23743	286.62009	645.56561	1271.27954	246.67752	1260.47473	1311.10938	285.29736	1192.10461	1298.38757	295.85623	1253.44141	1300.48242 
2	0.005	333.25674	965.37939	850.45142	334.64554	905.72083	852.54346	325.68604	935.29321	867.41235	208.35512	-196.87344	252.26120	179.11061	2023.85730	244.37334	294.45645	1360.69641	30.75923	123.19759	1458.80078	43.72561	185.47545	1510.69788	31.98251	150.85074	1489.11987	41.50008	333.89902	489.60565	41.28669	159.89410	403.52921	48.83340	220.46777	349.30786	32.48886	182.24393	372.23953	46.27877	273.77576	510.65967	63.56718	309.55646	439.55908	74.89299	329.86444	508.91513	204.49681	312.45279	519.71869	266.62100	352.37976	549.11523	251.97569	344.95755	560.61237	294.52856	243.51271	1350.18591	58.09493	280.97806	1412.43054	72.97422	282.28082	1322.83508	309.34604	325.54312	1304.12524	289.73334	294.08994	1343.02222	247.41597	272.99667	1124.41174	722.47388	221.00943	1189.76514	589.89288	270.95358	1183.44031	581.90924	252.94173	1167.66553	643.54608	286.55197	738.12952	715.52399	233.15561	669.06122	592.09491	282.66769	682.79663	593.66669	251.11554	692.64935	650.54236	171.53647	822.69019	1494.80420	281.35312	841.55231	1476.23438	285.26779	966.05170	1471.77832	295.80673	914.37695	1290.86011	318.65567	930.54956	906.52740	171.39699	923.15521	1232.27502	282.41599	783.93018	1285.90320	263.09842	1037.07117	1302.64404	244.87346	277.99039	1287.31165	285.76804	279.04382	1282.49524	234.67975	186.54889	1273.74084	277.42004	1547.14697	1334.57654	324.03348	1546.89221	1326.44031	272.35352	1633.94543	1347.10205	255.58554	594.37677	1286.18726	292.67377	566.37946	1267.26929	286.61566	645.55389	1271.30933	246.60052	1260.49402	1311.11523	285.05313	1191.99670	1298.28992	295.79770	1253.44836	1300.48145 
3	0.010	333.23441	965.38660	850.45422	334.62308	905.72131	852.53607	325.67020	935.29303	867.41577	208.35913	-196.86917	252.26254	179.10605	2023.86121	244.37187	294.45151	1360.70886	30.76554	123.19836	1458.80042	43.72618	185.69534	1510.69153	31.91831	150.82187	1489.11707	41.50903	333.87228	489.72742	41.19930	159.88588	403.51923	48.82766	220.45682	349.30151	32.48641	182.26099	372.23700	46.26741	273.76489	510.67352	63.57404	309.56506	439.55814	74.87309	329.83365	508.91553	204.49864	312.43222	519.69861	266.62582	352.37094	549.10052	251.98264	344.94577	560.59637	294.53738	243.51364	1350.19678	58.10062	281.04208	1412.82349	73.14035	282.28156	1322.83508	309.34363	325.52734	1304.13464	289.73627	294.08389	1343.03027	247.39899	272.97006	1124.40637	722.48230	220.99608	1189.75671	589.88348	270.94080	1183.43970	581.91547	252.93672	1167.66211	643.56891	286.55484	738.12451	715.51855	233.13264	669.06573	592.09583	282.65387	682.32141	593.69385	251.10144	692.64722	650.53467	171.49420	822.70044	1494.81873	281.32037	841.58813	1476.23022	285.22192	966.07977	1471.75940	295.76056	914.40326	1290.87915	318.63696	930.54517	906.53436	171.37680	923.14539	1232.26208	282.40198	783.93439	1285.90808	263.05377	1037.07654	1302.64380	244.88443	277.99188	1287.33923	285.79288	279.04535	1282.53064	234.70941	186.54817	1273.78467	277.36642	1547.16077	1334.56079	323.98254	1546.89612	1326.42859	272.28452	1633.95447	1347.09741	255.56239	594.37622	1286.21167	292.65265	566.37231	1267.29004	286.60370	645.57623	1271.32471	246.56607	1260.48779	1311.09827	285.19574	1192.12549	1298.37793	295.73807	1253.46863	1300.46985 
4	0.015	333.21320	965.37781	850.45148	334.59616	905.72876	852.53394	325.64621	935.29669	867.41180	208.34944	-196.86282	252.25095	179.10785	2023.87073	244.37576	294.43875	1360.69250	30.77015	123.20341	1458.78857	43.72868	185.59207	1510.69495	31.95200	150.81798	1489.11377	41.51821	333.90118	489.61353	41.28888	159.89796	403.52695	48.82652	220.45171	349.29767	32.48217	182.24454	372.24255	46.28083	273.77747	510.66495	63.55989	309.53882	439.58020	74.86866	329.80951	508.93008	204.51460	312.42740	519.69080	266.65582	352.35437	549.08844	252.00952	344.91919	560.58588	294.54874	243.49496	1350.19788	58.10434	280.96072	1412.43872	72.98227	282.27719	1322.84021	309.34467	325.52884	1304.12964	289.73160	294.10272	1343.01697	247.39145	272.95322	1124.41919	722.48431	220.97775	1189.75720	589.89539	271.57867	1183.90881	582.10706	252.94104	1167.64941	643.58685	286.70239	738.09833	715.76135	233.09561	669.06030	592.10168	282.69034	682.75470	593.68677	251.06326	692.66272	650.53491	171.47377	822.71722	1494.83240	281.29663	841.60742	1476.23120	285.18942	966.11572	1471.74890	295.70764	914.40991	1290.87830	318.61908	930.54712	906.54242	171.34857	923.15363	1232.27454	282.36292	783.94037	1285.91370	263.00885	1037.09229	1302.64343	244.88850	278.07651	1287.14380	285.78635	279.06711	1282.56824	234.74133	186.55013	1273.81494	277.30411	1547.17004	1334.54004	323.91989	1546.91907	1326.40540	272.22809	1633.96582	1347.09314	255.56689	594.37134	1286.24548	292.45679	566.36377	1267.35046	286.38797	645.64404	1271.39929	246.48468	1260.53015	1311.08923	285.14267	1192.13062	1298.35437	295.68280	1253.47668	1300.45581 
5	0.020	333.29758	965.16748	850.23865	334.59570	905.72803	852.53729	325.62332	935.29150	867.42084	208.34030	-196.83121	252.25084	179.11745	2023.85828	244.37801	294.43585	1360.69324	30.77295	123.18070	1458.78723	43.73217	185.66078	1510.66760	31.89650	150.83212	1489.10815	41.50080	333.89902	489.63113	41.28014	159.89801	403.52048	48.83210	220.47818	349.30960	32.47541	182.28737	372.21173	46.26453	273.77948	510.68066	63.58030	309.55676	439.56598	74.88380	329.78604	508.94583	204.49916	312.38882	519.67828	266.63727	352.35696	549.06580	252.01457	344.91666	560.56671	294.56436	243.48985	1350.18188	58.09651	280.96417	1412.41797	72.97210	282.28018	1322.83691	309.33737	325.51755	1304.13965	289.74255	294.06766	1343.03491	247.38153	272.93896	1124.41052	722.49329	220.94044	1189.76392	589.89233	271.34097	1183.79736	582.11945	252.89339	1167.66992	643.60046	286.50140	738.13287	715.52661	233.09183	669.05054	592.10181	282.57339	682.39752	593.65582	251.05222	692.65771	650.54053	171.44247	822.73181	1494.83215	281.27411	841.63226	1476.24292	285.13934	966.14722	1471.74158	295.68771	914.41302	1290.87708	318.57965	930.54572	906.54449	171.32959	923.16052	1232.28613	282.32269	783.93414	1285.92334	262.96393	1037.09937	1302.63855	244.91249	278.07968	1287.16614	285.79877	279.08081	1282.58362	234.89635	186.20815	1273.80347	277.24554	1547.18628	1334.50793	323.86078	1546.94043	1326.37585	272.17444	1633.97424	1347.06067	255.53270	594.38446	1286.26880	292.43127	566.34998	1267.36682	286.56058	645.54968	1271.36194	246.41725	1260.53772	1311.07678	285.07242	1192.14673	1298.35986	295.62320	1253.50476	1300.45081 
6	0.025	333.27252	965.17297	850.24231	334.54794	905.74335	852.54120	325.60599	935.29456	867.42242	208.33218	-196.79842	252.24527	179.11923	2023.85779	244.39078	294.43762	1360.69788	30.76794	123.17672	1458.80334	43.73086	185.49095	1510.69360	31.95149	150.82730	1489.11011	41.52136	333.87799	489.73605	41.18674	159.90929	403.50568	48.83602	220.47762	349.33121	32.47371	182.33038	372.19223	46.26873	273.76642	510.68182	63.57261	309.56393	439.55099	74.88107	329.74295	508.95782	204.50058	312.37598	519.68201	266.65436	352.34668	549.06122	252.04005	344.89526	560.54987	294.57623	243.46648	1350.18628	58.10362	280.95099	1412.42310	72.97839	282.27811	1322.85571	309.33069	325.49960	1304.15527	289.74887	294.07364	1343.04285	247.39793	272.91934	1124.41699	722.49371	220.92520	1189.78674	589.90576	271.31165	1183.79028	582.11151	252.86823	1167.68127	643.56494	286.47662	738.13641	715.53174	233.07344	669.03986	592.12335	282.55359	682.41254	593.63885	251.02524	692.63318	650.53717	171.43304	822.75031	1494.84473	281.24954	841.66119	1476.24902	285.09918	966.18713	1471.74402	295.66055	914.42535	1290.88916	318.56409	930.54535	906.54919	171.29460	923.16791	1232.29370	282.30093	783.93915	1285.92371	262.91132	1037.11865	1302.63770	244.90688	278.08521	1287.18689	285.78836	279.10123	1282.59534	234.78465	186.51332	1273.85645	277.17316	1547.20776	1334.47375	323.79327	1546.96851	1326.33276	272.09149	1633.99646	1347.04456	255.51680	594.38770	1286.28662	292.39005	566.34082	1267.38062	286.34998	645.62665	1271.43262	246.38435	1260.54382	1311.07288	285.03024	1192.15100	1298.33057	295.55676	1253.51550	1300.44995 
